<?xml version="1.0" encoding="UTF-8"?>
<!DOCTYPE svg PUBLIC "-//W3C//DTD SVG 1.1//EN" "http://www.w3.org/Graphics/SVG/1.1/DTD/svg11.dtd">
<svg xmlns="http://www.w3.org/2000/svg" version="1.1" width="1157px" height="940px" style="shape-rendering:geometricPrecision; text-rendering:geometricPrecision; image-rendering:optimizeQuality; fill-rule:evenodd; clip-rule:evenodd" xmlns:xlink="http://www.w3.org/1999/xlink">
<g><path style="opacity:0.963" fill="#0d7a3d" d="M 4.5,-0.5 C 24.1667,-0.5 43.8333,-0.5 63.5,-0.5C 85.1253,46.7507 107.292,93.7507 130,140.5C 149.687,93.2656 169.854,46.2656 190.5,-0.5C 207.167,-0.5 223.833,-0.5 240.5,-0.5C 240.5,3.16667 240.5,6.83333 240.5,10.5C 236.154,10.3343 231.821,10.501 227.5,11C 225.333,11.8333 223.833,13.3333 223,15.5C 222.155,68.509 222.488,121.509 224,174.5C 224.231,178.584 224.898,182.584 226,186.5C 226.903,187.701 228.069,188.535 229.5,189C 234.823,189.499 240.156,189.666 245.5,189.5C 245.5,193.167 245.5,196.833 245.5,200.5C 220.167,200.5 194.833,200.5 169.5,200.5C 169.5,196.833 169.5,193.167 169.5,189.5C 174.844,189.666 180.177,189.499 185.5,189C 186.333,188.167 187.167,187.333 188,186.5C 188.667,137.5 188.667,88.5 188,39.5C 165.866,90.0795 144.033,140.746 122.5,191.5C 118.774,191.823 115.107,191.489 111.5,190.5C 89,141.5 66.5,92.5 44,43.5C 43.3333,83.1667 43.3333,122.833 44,162.5C 44.1507,170.622 45.1507,178.622 47,186.5C 47.9025,187.701 49.0692,188.535 50.5,189C 57.1583,189.5 63.825,189.666 70.5,189.5C 70.5,193.167 70.5,196.833 70.5,200.5C 50.5,200.5 30.5,200.5 10.5,200.5C 10.5,196.833 10.5,193.167 10.5,189.5C 16.1764,189.666 21.8431,189.499 27.5,189C 28,188.5 28.5,188 29,187.5C 30.3717,137.506 30.7051,87.5064 30,37.5C 29.936,30.5777 28.6027,23.911 26,17.5C 20.1734,11.4111 13.0068,9.07781 4.5,10.5C 4.5,6.83333 4.5,3.16667 4.5,-0.5 Z"/></g>
<g><path style="opacity:0.952" fill="#0d7a3d" d="M 391.5,24.5 C 405.488,23.7577 419.155,25.4243 432.5,29.5C 433.945,37.788 434.445,46.1214 434,54.5C 432.192,56.3959 430.025,56.8959 427.5,56C 425.3,47.4648 419.967,41.7981 411.5,39C 397.349,34.5223 384.015,36.189 371.5,44C 360.841,53.8679 358.674,65.3679 365,78.5C 367.537,81.372 370.37,83.872 373.5,86C 389.833,93 406.167,100 422.5,107C 444.573,120.196 452.406,139.363 446,164.5C 440.26,181.907 428.76,193.741 411.5,200C 386.071,207.715 360.904,206.881 336,197.5C 333.489,187.957 332.156,178.291 332,168.5C 334.915,165.93 337.581,166.263 340,169.5C 342.018,176.046 345.852,181.213 351.5,185C 370.941,196.195 390.274,196.195 409.5,185C 422.457,173.474 424.957,159.974 417,144.5C 411.674,138.84 405.508,134.34 398.5,131C 383.223,126.021 368.556,119.688 354.5,112C 336.852,97.9232 331.685,80.0899 339,58.5C 344.444,46.7225 352.944,37.8892 364.5,32C 373.328,28.3799 382.328,25.8799 391.5,24.5 Z"/></g>
<g><path style="opacity:0.953" fill="#0d7a3d" d="M 517.5,24.5 C 531.417,23.7813 545.083,25.2813 558.5,29C 559,29.5 559.5,30 560,30.5C 560.667,38.8333 560.667,47.1667 560,55.5C 558.274,56.5762 556.441,56.7429 554.5,56C 551.659,45.8894 544.992,39.8894 534.5,38C 521.597,34.8487 509.597,36.8487 498.5,44C 483.911,57.7426 483.911,71.4092 498.5,85C 513.887,92.2428 529.554,98.9095 545.5,105C 572.004,119.152 580.504,140.652 571,169.5C 563.063,186.102 550.23,196.935 532.5,202C 509.138,207.349 486.138,206.016 463.5,198C 460.097,188.145 458.43,177.979 458.5,167.5C 460.968,166.25 463.301,166.417 465.5,168C 471.206,181.207 481.206,189.207 495.5,192C 513.364,196.161 528.864,191.994 542,179.5C 552.962,161.525 549.795,146.691 532.5,135C 519.842,128.838 506.842,123.504 493.5,119C 463.569,104.457 455.402,81.9567 469,51.5C 481.133,35.348 497.3,26.348 517.5,24.5 Z"/></g>
<g><path style="opacity:0.958" fill="#0d7a3d" d="M 668.5,24.5 C 699.272,21.4734 725.105,31.1401 746,53.5C 761.073,75.5142 766.74,99.8476 763,126.5C 756.267,169.232 731.767,195.065 689.5,204C 659.482,209.164 632.816,202.164 609.5,183C 593.24,164.901 585.24,143.568 585.5,119C 587.584,64.7627 615.251,33.2627 668.5,24.5 Z M 660.5,35.5 C 687.864,33.7626 707.697,45.096 720,69.5C 730.037,91.7869 733.704,115.12 731,139.5C 729.598,157.467 722.432,172.633 709.5,185C 682.027,200.708 657.86,196.541 637,172.5C 621.272,148.551 614.939,122.218 618,93.5C 618.994,75.0256 625.827,59.1923 638.5,46C 645.277,41.1097 652.61,37.6097 660.5,35.5 Z"/></g>
<g><path style="opacity:0.974" fill="#0d7a3d" d="M 249.5,29.5 C 271.5,29.5 293.5,29.5 315.5,29.5C 315.5,32.8333 315.5,36.1667 315.5,39.5C 311.486,39.3345 307.486,39.5012 303.5,40C 301.951,41.214 300.785,42.714 300,44.5C 299.214,89.842 299.547,135.175 301,180.5C 301.147,183.571 301.98,186.404 303.5,189C 309.742,190.37 316.075,190.87 322.5,190.5C 322.5,193.833 322.5,197.167 322.5,200.5C 299.167,200.5 275.833,200.5 252.5,200.5C 252.5,197.167 252.5,193.833 252.5,190.5C 256.846,190.666 261.179,190.499 265.5,190C 266.667,189.5 267.5,188.667 268,187.5C 268.848,140.823 268.515,94.1564 267,47.5C 266.959,43.5523 265.126,41.0523 261.5,40C 257.514,39.5012 253.514,39.3345 249.5,39.5C 249.5,36.1667 249.5,32.8333 249.5,29.5 Z"/></g>
<g><path style="opacity:0.963" fill="#0d7a3d" d="M 759.5,29.5 C 782.167,29.5 804.833,29.5 827.5,29.5C 827.5,32.8333 827.5,36.1667 827.5,39.5C 823.486,39.3345 819.486,39.5012 815.5,40C 813.277,40.6517 812.11,42.1517 812,44.5C 811.333,74.8333 811.333,105.167 812,135.5C 810.639,180.142 831.805,197.975 875.5,189C 892.495,183.006 902.662,171.173 906,153.5C 907.107,135.863 907.607,118.196 907.5,100.5C 907.592,82.1422 907.092,63.8088 906,45.5C 905.602,42.7683 904.102,40.935 901.5,40C 896.177,39.5006 890.844,39.334 885.5,39.5C 885.5,36.1667 885.5,32.8333 885.5,29.5C 927.168,29.3333 968.835,29.5 1010.5,30C 1032.51,30.743 1048.34,40.9097 1058,60.5C 1065.82,91.3622 1054.32,110.529 1023.5,118C 1037.14,139.444 1051.64,160.278 1067,180.5C 1074.94,190.714 1084.61,193.047 1096,187.5C 1096.78,141.492 1096.45,95.4916 1095,49.5C 1094.85,46.4294 1094.02,43.5961 1092.5,41C 1086.26,39.6304 1079.93,39.1304 1073.5,39.5C 1073.5,36.1667 1073.5,32.8333 1073.5,29.5C 1096.83,29.5 1120.17,29.5 1143.5,29.5C 1143.5,32.8333 1143.5,36.1667 1143.5,39.5C 1139.49,39.3345 1135.49,39.5012 1131.5,40C 1130.07,40.4652 1128.9,41.2986 1128,42.5C 1127.15,89.177 1127.49,135.844 1129,182.5C 1129.04,186.448 1130.87,188.948 1134.5,190C 1138.82,190.499 1143.15,190.666 1147.5,190.5C 1147.5,193.833 1147.5,197.167 1147.5,200.5C 1112.77,200.98 1078.1,200.48 1043.5,199C 1040.68,196.876 1038.18,194.376 1036,191.5C 1021.41,169.994 1008.07,147.661 996,124.5C 990.928,123.529 985.762,123.195 980.5,123.5C 980.164,143.858 980.664,164.192 982,184.5C 982.398,187.232 983.898,189.065 986.5,190C 991.489,190.499 996.489,190.666 1001.5,190.5C 1001.5,193.833 1001.5,197.167 1001.5,200.5C 978.833,200.5 956.167,200.5 933.5,200.5C 933.5,197.167 933.5,193.833 933.5,190.5C 937.514,190.666 941.514,190.499 945.5,190C 946.416,189.626 947.25,189.126 948,188.5C 948.667,144.167 948.667,99.8333 948,55.5C 947.667,52.1667 947.333,48.8333 947,45.5C 946.727,43.6711 945.893,42.1711 944.5,41C 937.608,39.4094 930.608,39.0761 923.5,40C 921.667,40.5 920.5,41.6667 920,43.5C 919.667,77.5 919.333,111.5 919,145.5C 916.837,176.985 900.337,196.152 869.5,203C 844.656,208.48 821.322,204.813 799.5,192C 787.305,182.109 781.139,169.276 781,153.5C 780.805,118.156 780.138,82.8225 779,47.5C 778.883,44.0885 777.383,41.5885 774.5,40C 769.511,39.5007 764.511,39.3341 759.5,39.5C 759.5,36.1667 759.5,32.8333 759.5,29.5 Z M 983.5,41.5 C 1011.02,40.0185 1026.36,53.0185 1029.5,80.5C 1028.6,97.9065 1019.6,108.406 1002.5,112C 995.214,113.186 987.881,113.686 980.5,113.5C 980.333,90.1643 980.5,66.831 981,43.5C 981.995,42.9341 982.828,42.2674 983.5,41.5 Z"/></g>
<g><path style="opacity:0.99" fill="#0d7a3d" d="M 223.5,939.5 C 204.167,939.5 184.833,939.5 165.5,939.5C 115.669,936.167 67.0022,926.334 19.5,910C 12.8688,870.731 6.20218,831.564 -0.5,792.5C -0.5,787.5 -0.5,782.5 -0.5,777.5C 5.65785,767.943 14.3245,764.777 25.5,768C 29,770.167 31.8333,773 34,776.5C 49.2627,816.097 76.4294,844.264 115.5,861C 165.734,880.66 216.401,881.66 267.5,864C 311.105,846.647 330.605,814.481 326,767.5C 324.735,746.136 315.901,728.636 299.5,715C 284.307,703.896 267.973,694.563 250.5,687C 217.74,673.08 184.74,659.747 151.5,647C 115.545,633.121 84.0448,612.621 57,585.5C 21.1466,543.791 6.81323,495.458 14,440.5C 23.986,380.67 55.486,336.17 108.5,307C 159.172,281.197 213.005,269.03 270,270.5C 323.243,270.34 375.743,276.34 427.5,288.5C 431.598,327.642 435.598,366.808 439.5,406C 439.515,411.928 438.015,417.428 435,422.5C 426.46,429.059 417.96,428.893 409.5,422C 399.633,409.098 390.133,395.932 381,382.5C 361.43,363.29 338.263,350.123 311.5,343C 277.33,333.824 242.997,333.157 208.5,341C 158.578,354.363 137.411,386.53 145,437.5C 147.937,448.548 153.77,457.714 162.5,465C 176.354,475.845 191.021,485.512 206.5,494C 244.266,511.216 282.266,527.883 320.5,544C 349.093,556.287 375.76,571.62 400.5,590C 410.469,598.795 419.136,608.628 426.5,619.5C 395.035,649.128 379.369,685.795 379.5,729.5C 379.578,772.603 394.744,809.27 425,839.5C 425.667,840.5 425.667,841.5 425,842.5C 393.738,881.907 353.905,909.074 305.5,924C 278.575,932.087 251.241,937.253 223.5,939.5 Z"/></g>
<g><path style="opacity:0.988" fill="#0d7a3d" d="M 1156.5,398.5 C 1156.5,404.5 1156.5,410.5 1156.5,416.5C 1149.97,424.297 1141.97,426.13 1132.5,422C 1122.06,405.221 1109.73,389.888 1095.5,376C 1073.31,359.601 1048.31,350.934 1020.5,350C 997.854,348.689 975.187,348.189 952.5,348.5C 954.209,511.166 956.042,673.833 958,836.5C 962.762,871.58 982.929,888.08 1018.5,886C 1027.38,888.902 1032.04,895.069 1032.5,904.5C 1032.09,915.07 1026.76,921.57 1016.5,924C 923.5,924.667 830.5,924.667 737.5,924C 725.092,920.035 720.259,911.535 723,898.5C 725.141,892.359 729.307,888.193 735.5,886C 770.942,887.21 791.109,870.377 796,835.5C 796.625,826.507 797.125,817.507 797.5,808.5C 796.569,769.507 796.236,730.507 796.5,691.5C 803.443,692.759 810.11,694.925 816.5,698C 833.981,706.572 850.981,715.905 867.5,726C 879.639,730.757 889.139,727.59 896,716.5C 902.167,702.807 904.167,688.473 902,673.5C 895.273,637.206 876.44,609.039 845.5,589C 830.66,579.832 814.827,572.999 798,568.5C 798.049,495.158 798.883,421.824 800.5,348.5C 778.147,348.21 755.813,348.71 733.5,350C 704.041,350.847 678.041,360.513 655.5,379C 649.883,385.073 644.383,391.239 639,397.5C 633.22,406.28 627.054,414.78 620.5,423C 602.906,426.406 595.406,419.239 598,401.5C 604.394,361.47 610.894,321.47 617.5,281.5C 790.5,281.333 963.5,281.5 1136.5,282C 1143.34,320.901 1150.01,359.735 1156.5,398.5 Z"/></g>
<g><path style="opacity:0.987" fill="#0d7a3d" d="M 560.5,460.5 C 589.661,457.294 616.328,463.794 640.5,480C 646.135,484.629 650.635,490.129 654,496.5C 655.874,510.961 649.707,516.794 635.5,514C 626.288,507.927 616.288,503.593 605.5,501C 580.777,497.929 564.61,508.095 557,531.5C 554.938,544.582 557.605,556.582 565,567.5C 586.5,594.333 608,621.167 629.5,648C 636.947,641.563 644.28,634.563 651.5,627C 686.235,600.9 725.235,591.233 768.5,598C 809.332,603.977 840.832,624.143 863,658.5C 867.706,666.612 870.372,675.278 871,684.5C 868.507,688.175 865.341,689.008 861.5,687C 834.092,666.19 803.259,653.357 769,648.5C 766.532,649.104 764.532,650.438 763,652.5C 761.678,711.776 761.011,771.109 761,830.5C 757.428,848.056 746.595,856.723 728.5,856.5C 718.145,855.993 708.478,853.159 699.5,848C 694.358,844.358 689.358,840.525 684.5,836.5C 620.034,865.616 554.701,867.783 488.5,843C 430.187,814.548 406.02,768.048 416,703.5C 424.88,660.121 450.713,632.787 493.5,621.5C 488.76,611.681 484.26,601.681 480,591.5C 468.403,558.283 472.069,526.95 491,497.5C 509.298,476.1 532.464,463.767 560.5,460.5 Z M 705.5,649.5 C 710.742,648.271 714.575,649.937 717,654.5C 717.667,683.833 717.667,713.167 717,742.5C 692.004,719.782 668.838,695.449 647.5,669.5C 652.822,666.172 658.489,663.339 664.5,661C 677.99,656.048 691.657,652.215 705.5,649.5 Z M 513.5,652.5 C 542.966,692.823 575.299,730.99 610.5,767C 624.869,780.372 639.536,793.372 654.5,806C 610.123,824.386 569.956,817.886 534,786.5C 506.21,754.013 496.544,716.68 505,674.5C 507.153,666.868 509.987,659.535 513.5,652.5 Z"/></g>
</svg>
